<?xml version="1.0" standalone="no"?>
<!DOCTYPE svg PUBLIC "-//W3C//DTD SVG 20010904//EN"
 "http://www.w3.org/TR/2001/REC-SVG-20010904/DTD/svg10.dtd">
<svg version="1.0" xmlns="http://www.w3.org/2000/svg"
 width="497.000000pt" height="502.000000pt" viewBox="0 0 497.000000 502.000000"
 preserveAspectRatio="xMidYMid meet">

<g transform="translate(0.000000,502.000000) scale(0.100000,-0.100000)"
fill="#000000" stroke="none">
<path d="M2415 4769 c-33 -11 -127 -35 -210 -54 -439 -100 -893 -163 -1342
-187 l-223 -12 0 -748 0 -748 23 0 c12 0 39 3 60 6 l37 7 0 682 0 682 127 6
c405 20 1093 123 1471 221 l128 33 84 -23 c379 -103 1078 -210 1508 -231 l132
-6 0 -678 c0 -637 1 -678 18 -683 9 -2 36 -8 60 -11 l42 -7 0 750 0 749 -160
7 c-537 23 -1171 120 -1605 246 -82 23 -73 23 -150 -1z"/>
<path d="M2197 4384 c-3 -3 3 -15 14 -27 18 -19 19 -37 19 -249 0 -184 -3
-235 -15 -258 -8 -16 -12 -31 -7 -33 4 -3 62 -2 129 1 l123 5 48 51 49 51 -3
185 -2 185 -53 48 -53 47 -121 0 c-67 0 -124 -3 -128 -6z m231 -104 l32 -20 0
-147 c0 -146 0 -147 -27 -175 -20 -21 -36 -28 -65 -28 l-38 0 0 188 c0 104 3
192 7 195 13 13 58 7 91 -13z"/>
<path d="M2629 4364 c20 -25 21 -39 21 -263 0 -220 -1 -239 -19 -258 l-19 -20
76 -6 c42 -3 79 -4 83 -1 4 2 1 20 -7 39 -20 50 -20 468 0 508 l15 27 -85 0
-85 0 20 -26z"/>
<path d="M1995 4375 c-5 -2 -58 -7 -117 -10 l-108 -7 20 -25 c19 -24 20 -41
20 -252 0 -181 -3 -232 -15 -255 -8 -15 -15 -30 -15 -32 0 -6 52 -5 103 2 41
6 45 9 37 25 -6 10 -10 56 -10 102 0 80 1 84 25 95 14 7 27 12 29 12 11 0 57
-159 54 -187 l-4 -33 68 0 c37 0 68 2 68 5 0 4 -6 19 -14 34 -8 15 -31 70 -51
122 l-35 94 32 28 c18 15 36 27 40 27 4 0 8 40 8 88 l0 88 -50 37 c-54 40 -69
48 -85 42z m7 -112 c12 -11 18 -30 18 -62 0 -45 -2 -47 -50 -73 -28 -16 -52
-28 -55 -28 -3 0 -5 41 -5 90 l0 90 37 0 c20 0 45 -7 55 -17z"/>
<path d="M2887 4339 l-37 -43 0 -205 1 -206 34 -40 34 -40 93 -6 93 -5 33 30
c32 29 34 34 30 88 -2 32 -7 60 -10 63 -12 12 -83 -21 -86 -40 -6 -32 -22 -45
-57 -45 -59 0 -65 17 -65 194 0 89 4 166 10 177 7 13 21 19 44 19 40 0 51 -12
60 -62 8 -43 6 -42 57 -26 43 13 44 14 27 103 l-11 63 -41 6 c-23 3 -71 8
-107 12 l-66 6 -36 -43z"/>
<path d="M1503 4331 c-28 -4 -53 -9 -55 -11 -2 -3 -20 -24 -41 -48 l-37 -42 0
-193 0 -193 43 -42 43 -42 89 11 c90 10 90 10 132 57 l43 47 0 195 -1 195 -34
38 c-38 40 -57 43 -182 28z m98 -91 c18 -10 19 -23 19 -173 0 -117 -4 -168
-13 -181 -19 -26 -93 -33 -117 -11 -18 17 -20 31 -20 169 1 171 5 184 67 196
21 4 39 8 41 9 2 0 12 -4 23 -9z"/>
<path d="M3283 4310 l-33 -30 0 -213 0 -214 28 -36 c29 -38 38 -41 163 -53 66
-6 67 -6 108 31 l41 37 0 202 -1 201 -37 41 c-34 38 -44 43 -109 53 -106 16
-124 14 -160 -19z m190 -88 c15 -13 17 -35 17 -178 0 -190 -4 -200 -74 -189
-75 13 -76 16 -76 205 0 118 4 170 12 178 16 16 96 5 121 -16z"/>
<path d="M1233 4298 l-61 -9 14 -27 c15 -29 21 -282 6 -282 -4 0 -40 65 -81
145 -56 108 -79 144 -90 141 -9 -3 -37 -8 -63 -11 l-46 -7 19 -32 c17 -28 19
-52 19 -254 0 -180 -3 -229 -15 -252 -18 -36 -16 -36 81 -19 l63 11 -20 31
c-16 27 -19 51 -19 155 0 67 4 122 8 122 5 0 16 -15 25 -32 17 -33 62 -116
107 -195 22 -40 26 -43 67 -43 l43 0 0 258 c0 212 3 262 15 278 8 10 15 22 15
27 0 8 -3 8 -87 -5z"/>
<path d="M3712 4247 c-42 -42 -42 -44 -42 -115 l0 -72 125 -82 c121 -81 125
-84 125 -119 0 -49 -19 -63 -72 -55 -52 9 -68 21 -68 55 0 48 -12 56 -64 41
-26 -7 -48 -16 -51 -19 -2 -4 12 -39 31 -78 34 -70 35 -72 84 -82 28 -6 75
-14 104 -17 51 -6 57 -5 95 27 l41 34 0 86 0 86 -117 79 c-116 78 -118 80
-121 120 -4 57 10 66 78 51 53 -12 55 -14 61 -50 3 -20 8 -40 11 -43 9 -8 88
34 88 47 0 15 -48 95 -65 109 -17 14 -125 39 -170 40 -23 0 -41 -11 -73 -43z"/>
<path d="M2255 3525 l0 -165 49 0 c42 0 47 2 41 18 -4 9 -10 41 -13 71 l-5 54
52 -6 51 -6 0 34 0 35 -50 0 -50 0 0 40 c0 46 15 51 75 26 l35 -15 0 40 0 39
-92 0 -93 0 0 -165z"/>
<path d="M2537 3662 c-26 -27 -27 -33 -27 -133 0 -104 0 -105 31 -137 27 -27
39 -32 78 -32 55 0 91 29 91 73 0 23 -4 27 -29 27 -20 0 -30 -6 -34 -20 -6
-23 -45 -28 -65 -8 -13 13 -15 125 -3 168 5 19 14 26 39 28 29 3 32 1 32 -23
0 -25 0 -25 30 -10 35 18 34 16 16 60 -15 34 -16 35 -74 35 -51 0 -62 -4 -85
-28z"/>
<path d="M1799 3573 c-78 -60 -142 -151 -170 -244 -18 -59 -21 -88 -17 -163 6
-107 31 -176 90 -254 39 -53 141 -136 188 -154 13 -5 27 -12 30 -16 3 -4 16
-13 30 -19 l25 -11 -28 -13 -29 -13 4 -150 c4 -181 -7 -225 -82 -339 -94 -145
-115 -214 -91 -303 12 -45 50 -107 66 -108 5 -1 13 20 16 45 7 45 46 120 70
135 9 5 10 -2 5 -27 -17 -84 -17 -118 -2 -178 20 -79 20 -78 -4 -56 -21 19
-23 17 -228 -188 -114 -114 -212 -207 -219 -207 -6 0 -21 -12 -33 -27 -17 -22
-20 -36 -16 -66 12 -75 52 -107 130 -107 48 0 70 17 83 67 5 21 68 92 201 228
189 194 193 197 215 181 47 -34 137 -74 137 -61 0 2 -11 21 -25 41 -30 44 -58
134 -52 166 3 22 4 21 16 -7 28 -68 78 -129 168 -207 88 -75 95 -80 111 -64
16 15 15 21 -6 79 -12 34 -22 65 -22 70 0 4 28 -25 62 -64 l62 -72 64 69 c35
38 62 62 59 54 -2 -8 -12 -39 -22 -69 -15 -48 -16 -55 -2 -68 14 -14 22 -10
78 38 130 112 148 131 182 197 36 67 36 67 37 31 0 -47 -24 -114 -56 -156 -14
-19 -24 -37 -21 -39 7 -8 77 23 121 54 l38 26 199 -201 c119 -121 199 -210
199 -221 0 -11 9 -31 21 -46 17 -22 28 -26 70 -26 39 0 55 5 79 27 53 48 54
143 2 166 -15 6 -43 27 -63 47 -20 19 -113 111 -207 204 -169 167 -172 169
-192 151 -24 -22 -24 -21 -4 39 16 48 15 147 -2 204 -6 22 -5 23 14 11 24 -15
56 -84 66 -142 6 -33 9 -37 22 -26 47 39 76 160 55 234 -6 22 -40 90 -76 150
-91 152 -100 187 -97 363 3 135 2 144 -18 160 -21 17 -20 17 46 52 162 85 264
224 283 387 19 158 -25 281 -144 399 -65 65 -109 94 -121 81 -2 -2 9 -37 25
-78 91 -228 52 -367 -128 -459 -36 -18 -51 -20 -75 -13 -17 5 -43 6 -58 2 -21
-5 -36 0 -75 28 -55 39 -129 79 -185 99 -21 7 -53 25 -71 38 l-33 26 -130 -66
c-71 -36 -148 -81 -170 -100 -38 -30 -45 -32 -75 -24 -23 7 -43 7 -61 -1 -52
-21 -180 60 -225 144 -14 25 -18 55 -18 132 1 89 5 109 33 180 18 44 32 83 32
88 0 16 -21 5 -81 -40z m1477 -216 c26 -56 29 -73 29 -167 0 -95 -3 -111 -28
-162 -15 -31 -48 -79 -72 -106 -46 -51 -131 -112 -156 -112 -8 0 2 10 21 21
145 88 222 216 219 366 -1 37 -4 57 -6 43 -15 -92 -65 -191 -128 -255 -70 -72
-155 -113 -155 -76 0 4 10 13 23 19 l22 11 -24 -2 c-37 -3 -36 21 1 37 l33 15
-44 -2 c-24 -1 -45 3 -47 8 -2 6 24 23 57 39 72 33 137 96 171 163 19 41 23
63 23 150 0 93 1 100 16 87 9 -8 30 -43 45 -77z m-1521 -14 c0 -82 4 -106 23
-145 32 -66 91 -122 164 -159 76 -38 74 -37 61 -50 -8 -8 -20 -8 -42 -1 -37
13 -42 0 -6 -16 36 -17 32 -35 -7 -30 -32 5 -32 5 -10 -10 19 -13 31 -42 17
-42 -21 0 -96 50 -136 91 -49 50 -119 175 -119 213 0 11 -5 28 -11 36 -8 11
-9 -6 -6 -63 9 -136 76 -243 201 -320 60 -37 44 -49 -18 -13 -56 32 -137 121
-164 180 -60 127 -54 265 16 381 15 25 29 45 32 45 3 0 5 -44 5 -97z m765
-180 c14 -9 26 -17 27 -18 3 -2 33 -397 33 -433 0 -14 -18 -40 -46 -67 l-46
-45 -44 38 -43 37 -1 85 c0 47 5 153 11 236 12 146 13 152 38 167 33 21 41 21
71 0z m-221 -80 c-8 -9 -27 -30 -43 -47 -47 -50 -110 -138 -130 -184 -21 -47
-40 -57 -29 -14 22 89 79 174 152 228 50 36 72 44 50 17z m551 -188 c22 -43
36 -82 33 -85 -3 -3 -8 0 -10 7 -2 7 -27 49 -54 95 -74 122 -76 127 -40 93 18
-16 50 -66 71 -110z m72 82 c27 -52 78 -209 72 -219 -15 -23 -32 1 -57 80 -15
48 -41 107 -57 132 -27 40 -28 46 -12 51 23 9 29 4 54 -44z m-812 35 c0 -5
-15 -39 -34 -76 -19 -38 -43 -95 -52 -127 -19 -64 -40 -73 -38 -17 1 32 49
153 82 206 14 21 42 31 42 14z m273 -369 l82 -78 5 -198 c7 -263 24 -267 28
-6 l2 196 83 80 82 80 80 -4 c113 -6 245 -40 245 -63 0 -5 -13 -10 -28 -10
-36 0 -71 -35 -53 -53 6 -6 28 -16 48 -22 20 -6 38 -15 40 -21 3 -8 -49 -10
-182 -6 l-186 5 -41 -39 -40 -39 5 -80 c3 -44 11 -104 18 -133 l12 -52 -46
-47 -47 -47 -48 47 -48 47 13 73 c6 39 12 99 13 132 0 58 -2 63 -39 99 l-40
39 -180 -6 c-144 -4 -181 -2 -181 8 0 7 18 15 44 19 53 8 65 30 36 61 -15 15
-28 20 -50 17 -17 -2 -30 0 -30 6 0 17 107 52 184 61 138 16 129 19 219 -66z
m-343 -44 c0 -5 -13 -9 -30 -9 -35 0 -41 17 -7 22 26 5 37 1 37 -13z m950 0
c0 -5 -11 -9 -25 -9 -26 0 -34 15 -12 23 16 5 37 -3 37 -14z m-957 -209 c4
-66 11 -100 26 -124 19 -31 21 -49 21 -225 0 -105 -3 -191 -7 -191 -7 0 -59
56 -79 86 -28 41 -34 85 -23 154 17 95 31 110 24 23 -7 -82 5 -141 35 -168 20
-18 20 -18 20 130 0 128 -3 152 -19 179 -13 21 -20 52 -21 101 -3 99 -1 125 9
125 4 0 11 -41 14 -90z m101 52 c46 -74 112 -112 194 -112 28 0 32 -3 32 -27
0 -64 -19 -101 -65 -127 -24 -15 -51 -36 -59 -48 -19 -27 -26 -21 -33 29 -3
25 1 45 10 58 14 19 12 21 -36 45 -39 19 -58 36 -76 69 l-25 45 35 -26 c19
-14 45 -29 59 -33 23 -7 22 -4 -11 31 -39 41 -69 93 -69 119 0 26 19 16 44
-23z m746 21 c0 -26 -56 -119 -82 -137 -16 -12 -18 -16 -7 -16 9 0 35 14 58
31 41 29 43 30 36 7 -11 -34 -65 -87 -100 -97 -19 -5 -28 -13 -26 -22 10 -32
13 -81 7 -104 l-6 -25 -30 33 c-16 18 -45 42 -64 52 -30 17 -37 27 -46 72 -6
29 -9 57 -5 63 3 5 23 10 44 10 60 0 131 42 169 100 34 52 52 63 52 33z m86
-9 c10 -41 -1 -156 -20 -192 -14 -27 -16 -58 -14 -185 l3 -152 24 49 c19 41
22 60 19 122 -4 80 3 84 21 12 14 -61 14 -109 -1 -145 -17 -38 -89 -123 -100
-117 -4 3 -8 88 -8 190 0 170 2 188 22 227 16 31 23 66 26 130 4 86 16 111 28
61z m-1046 -299 c-11 -31 -33 -78 -48 -104 -16 -25 -34 -63 -41 -83 -15 -46
-31 -58 -31 -24 0 39 29 116 64 171 18 28 40 63 50 78 26 43 29 28 6 -38z
m1174 -25 c60 -89 80 -140 74 -180 -3 -23 -5 -22 -22 15 -10 22 -33 65 -51 95
-27 44 -76 175 -61 159 2 -2 30 -42 60 -89z m-785 -37 c-12 -21 -29 -47 -36
-58 -24 -36 -13 -36 22 0 60 59 82 70 110 55 14 -7 32 -24 40 -36 14 -22 14
-24 -12 -30 -74 -16 -101 -31 -150 -81 -29 -30 -58 -68 -65 -84 -7 -16 -15
-29 -19 -29 -11 0 12 145 30 184 16 35 84 116 98 116 3 0 -6 -17 -18 -37z
m385 -10 c50 -52 70 -100 81 -199 l7 -59 -22 35 c-54 87 -137 151 -214 165
l-37 8 32 33 c18 19 41 34 50 34 10 0 40 -22 68 -49 28 -27 51 -47 51 -44 0
10 -42 77 -63 101 -39 43 1 22 47 -25z m-526 -179 c-10 -108 -13 -123 -20 -89
-11 62 7 244 23 228 7 -7 6 -55 -3 -139z m656 21 c4 -44 2 -93 -3 -110 -8 -27
-9 -25 -11 25 -1 30 -5 80 -9 110 -4 30 -6 63 -3 74 5 19 5 19 12 0 4 -10 10
-55 14 -99z m-256 14 c58 -19 34 -26 -82 -25 -88 1 -112 4 -104 13 24 29 111
35 186 12z m-106 -106 l28 -27 28 28 c24 22 31 24 40 13 20 -24 42 -85 42
-118 0 -42 -11 -30 -30 32 -8 28 -19 51 -25 52 -14 3 -84 -94 -96 -134 -9 -30
-8 -43 11 -87 12 -28 26 -49 30 -47 5 3 16 26 26 51 15 40 16 52 5 96 -19 71
0 84 28 19 25 -58 27 -94 6 -111 -8 -7 -25 -30 -37 -51 -12 -22 -25 -39 -29
-39 -11 0 -89 116 -89 132 0 7 16 42 35 77 34 63 34 64 16 87 -22 29 -37 17
-47 -37 -10 -56 -13 -64 -26 -51 -6 6 -8 24 -4 44 6 35 41 98 53 98 4 0 20
-12 35 -27z m-477 -40 c9 -32 27 -78 41 -102 28 -51 28 -52 9 -45 -41 16 -101
160 -80 193 10 18 13 14 30 -46z m344 20 c-5 -21 -6 -65 -3 -98 5 -46 4 -57
-5 -49 -19 17 -26 118 -11 154 17 42 30 38 19 -7z m341 -15 c9 -30 8 -53 0
-89 -7 -27 -15 -49 -18 -49 -4 0 -7 42 -7 94 0 99 7 112 25 44z m350 12 c0
-47 -22 -105 -52 -137 -35 -37 -40 -26 -13 27 14 27 30 72 36 100 13 60 29 66
29 10z m-750 -80 c0 -16 9 -54 21 -85 12 -31 19 -58 16 -61 -2 -2 -17 14 -32
37 -28 43 -43 105 -31 134 9 24 26 8 26 -25z m460 -18 c0 -34 -7 -58 -25 -85
-36 -52 -47 -46 -24 13 10 28 19 61 19 74 0 14 3 31 6 40 11 29 24 6 24 -42z
m-220 -56 c0 -6 -5 -18 -10 -26 -9 -13 -12 -13 -25 4 -19 25 -2 64 21 45 8 -6
14 -17 14 -23z m624 -123 c21 -24 34 -43 29 -43 -9 0 -44 35 -74 74 -26 35 6
12 45 -31z m-1335 10 c-190 -210 -243 -263 -253 -252 -8 8 26 47 128 145 128
124 184 172 125 107z m31 -36 l-53 -52 48 58 c26 32 50 55 53 52 4 -3 -18 -29
-48 -58z m1485 -86 c95 -93 124 -126 115 -135 -9 -8 -27 5 -72 54 -236 257
-251 285 -43 81z m-1797 -201 c22 -28 17 -45 -10 -35 -18 7 -40 44 -33 55 9
15 18 11 43 -20z m1982 5 c0 -20 -42 -47 -54 -35 -6 6 -2 18 14 35 23 25 40
25 40 0z"/>
<path d="M3060 3000 c0 -5 5 -10 10 -10 6 0 10 5 10 10 0 6 -4 10 -10 10 -5 0
-10 -4 -10 -10z"/>
<path d="M1890 3000 c0 -5 5 -10 10 -10 6 0 10 5 10 10 0 6 -4 10 -10 10 -5 0
-10 -4 -10 -10z"/>
<path d="M2463 3128 c-6 -7 -13 -68 -16 -135 -5 -116 -4 -122 17 -142 l22 -21
24 25 c22 24 23 28 16 147 -5 76 -12 126 -19 130 -18 11 -33 10 -44 -4z m40
-130 c5 -101 0 -127 -22 -114 -12 8 -15 154 -5 194 13 46 21 19 27 -80z"/>
<path d="M2441 2790 c0 -33 1 -34 11 -12 8 17 8 26 0 34 -9 9 -12 4 -11 -22z"/>
<path d="M2516 2804 c-3 -9 -2 -23 4 -32 7 -14 9 -10 10 16 0 35 -5 41 -14 16z"/>
<path d="M2464 2725 c-18 -33 -18 -35 1 -55 19 -21 19 -21 38 -1 18 17 19 23
7 51 -18 43 -25 44 -46 5z"/>
<path d="M2287 2636 c32 -25 76 -63 98 -85 43 -45 55 -50 55 -23 0 9 -34 47
-76 85 -58 52 -82 67 -106 67 -29 0 -29 -1 29 -44z"/>
<path d="M2607 2612 c-85 -85 -94 -128 -10 -52 31 28 72 63 92 78 56 41 57 42
20 42 -29 0 -44 -10 -102 -68z"/>
<path d="M2137 2627 l-25 -42 49 -3 c27 -2 70 -2 96 0 l46 3 -46 32 c-24 18
-56 37 -70 42 -23 9 -28 6 -50 -32z m66 -1 c25 -20 21 -26 -18 -26 -33 0 -34
1 -23 20 15 23 17 24 41 6z"/>
<path d="M2755 2641 c-28 -16 -57 -36 -64 -45 -12 -14 -4 -16 83 -16 l97 0
-25 42 c-14 24 -29 44 -33 45 -4 2 -31 -10 -58 -26z m65 -32 c0 -5 -16 -9 -35
-9 -40 0 -46 12 -12 27 22 11 47 1 47 -18z"/>
<path d="M2080 2645 c12 -15 30 -12 30 6 0 5 -10 9 -21 9 -18 0 -19 -2 -9 -15z"/>
<path d="M2860 2656 c0 -2 6 -9 14 -15 10 -9 16 -8 26 4 11 13 8 15 -14 15
-14 0 -26 -2 -26 -4z"/>
<path d="M2532 2230 c0 -14 2 -19 5 -12 2 6 2 18 0 25 -3 6 -5 1 -5 -13z"/>
<path d="M2442 2220 c0 -14 2 -19 5 -12 2 6 2 18 0 25 -3 6 -5 1 -5 -13z"/>
<path d="M1080 3449 c-11 -15 -28 -45 -36 -65 l-16 -37 40 -40 40 -40 72 73
c39 40 68 76 63 80 -4 5 -38 20 -76 33 l-67 25 -20 -29z m59 -80 c-5 -10 -14
-19 -20 -19 -16 0 -22 29 -9 45 19 22 43 0 29 -26z"/>
<path d="M3785 3447 c-33 -12 -59 -27 -58 -32 1 -6 32 -40 70 -77 74 -74 82
-75 127 -15 l19 26 -29 58 c-35 68 -45 71 -129 40z m83 -75 c2 -13 -2 -22 -10
-22 -16 0 -40 35 -30 44 13 13 37 0 40 -22z"/>
<path d="M1203 3312 l-93 -97 79 -77 c43 -43 85 -78 94 -78 8 0 52 39 97 86
l81 87 -25 26 c-18 19 -23 30 -15 38 7 7 -8 26 -49 62 -33 28 -64 51 -68 50
-5 0 -51 -44 -101 -97z m137 -7 l34 -35 -41 0 c-38 0 -41 2 -45 30 -8 52 6 53
52 5z m-80 -20 c0 -8 -7 -15 -15 -15 -26 0 -18 20 13 29 1 1 2 -6 2 -14z m0
-85 c0 -48 -10 -50 -44 -8 -29 37 -26 48 15 48 27 0 29 -2 29 -40z m130 31 c0
-16 -27 -31 -45 -25 -12 5 -16 2 -14 -12 3 -20 -20 -64 -33 -64 -5 0 -8 25 -8
55 l0 55 50 0 c28 0 50 -4 50 -9z"/>
<path d="M3602 3359 c-38 -34 -52 -54 -48 -66 4 -10 -2 -26 -16 -40 l-22 -24
84 -84 c47 -47 89 -85 93 -85 12 0 167 140 167 150 0 9 -190 200 -199 200 -3
-1 -30 -23 -59 -51z m92 -34 c3 -8 1 -15 -4 -15 -6 0 -10 -9 -10 -20 0 -17 -7
-20 -46 -20 l-46 0 42 35 c47 39 55 42 64 20z m41 -45 c3 -5 -1 -10 -9 -10 -9
0 -16 5 -16 10 0 6 4 10 9 10 6 0 13 -4 16 -10z m-71 -46 c12 -4 16 -20 16
-55 0 -27 -4 -49 -10 -49 -13 0 -29 32 -27 55 1 12 -3 19 -11 17 -17 -3 -52
16 -52 28 0 11 59 14 84 4z m106 -4 c12 -8 9 -16 -22 -47 l-38 -38 0 42 c0 40
4 44 40 52 3 0 12 -4 20 -9z"/>
<path d="M1085 3160 c-12 -20 -152 -104 -215 -130 -83 -34 -136 -47 -232 -55
-43 -4 -78 -10 -78 -14 1 -33 37 -144 64 -199 115 -228 340 -407 576 -458 70
-15 122 -17 157 -8 21 6 17 13 -53 87 -135 146 -183 239 -184 354 0 77 34 174
86 245 l37 50 -72 69 c-39 38 -74 69 -76 69 -2 0 -7 -4 -10 -10z m38 -64 c5
-14 -15 -31 -108 -94 l-50 -34 39 8 c34 6 38 5 33 -10 -26 -68 -41 -152 -41
-235 1 -77 -1 -91 -12 -77 -7 10 -15 44 -19 77 l-7 60 -47 -3 c-40 -3 -46 -6
-49 -27 -3 -19 11 -38 63 -87 57 -56 125 -104 125 -90 0 3 -7 35 -15 71 -17
71 -13 122 13 168 18 30 39 38 27 10 -5 -10 -10 -46 -13 -81 -5 -70 9 -133 45
-201 13 -24 21 -46 19 -48 -7 -7 -92 33 -138 65 -55 38 -116 96 -157 150 -42
55 -113 191 -106 203 13 19 26 7 55 -52 25 -49 34 -58 45 -49 8 6 15 28 17 48
4 49 22 43 26 -8 l3 -40 48 0 47 0 11 53 c6 28 10 53 9 54 -1 1 -41 0 -89 -4
-83 -6 -87 -7 -82 -27 6 -20 5 -20 -14 3 -12 12 -19 27 -16 31 3 5 29 16 58
26 71 23 131 55 202 108 67 50 71 52 78 32z m37 -46 c13 -9 13 -11 0 -20 -19
-12 -27 -12 -35 0 -7 11 2 30 13 30 4 0 14 -5 22 -10z m-60 -41 c0 -16 5 -20
20 -16 29 8 25 -18 -5 -31 -14 -7 -34 -12 -45 -12 -16 0 -17 4 -10 30 5 16 11
34 15 40 11 17 25 11 25 -11z m-386 -148 c48 -122 146 -243 263 -324 22 -15
76 -43 119 -62 85 -37 167 -105 127 -105 -41 0 -177 49 -243 87 -82 48 -218
185 -270 272 -52 87 -85 182 -68 193 31 19 45 7 72 -61z m358 26 l-32 -32 0
27 c0 20 7 29 28 36 39 13 40 6 4 -31z m-126 8 c10 -26 -6 -38 -27 -19 -15 13
-17 19 -7 26 19 11 28 10 34 -7z m-9 -151 c3 -8 0 -21 -6 -27 -10 -9 -16 -8
-26 7 -8 10 -12 23 -9 27 9 15 34 10 41 -7z"/>
<path d="M1397 3112 c-31 -32 -57 -61 -57 -66 0 -5 87 -99 194 -210 106 -110
227 -237 269 -281 l76 -80 1 117 0 117 -62 43 c-97 65 -161 134 -201 218 -25
53 -54 93 -99 138 l-64 62 -57 -58z m127 -132 c43 -49 75 -90 71 -90 -7 0 -6
-1 -98 97 -37 40 -67 77 -67 83 0 18 12 6 94 -90z"/>
<path d="M3447 3102 c-37 -37 -67 -73 -67 -80 0 -56 -118 -200 -218 -267 -44
-29 -62 -48 -66 -69 -9 -44 -7 -196 2 -196 9 0 71 63 359 366 l182 191 -61 62
c-33 33 -61 61 -62 61 -1 0 -32 -30 -69 -68z m86 -45 c-10 -18 -122 -136 -149
-157 -17 -13 -17 -11 2 10 112 136 178 201 147 147z"/>
<path d="M3802 3098 l-71 -69 33 -47 c146 -205 122 -368 -87 -588 -63 -67 -78
-88 -66 -95 35 -22 164 -2 281 42 248 96 477 357 514 588 l7 41 -47 0 c-128 0
-302 60 -420 145 l-73 52 -71 -69z m109 -23 c67 -57 106 -78 256 -136 20 -7
21 -11 11 -34 -6 -14 -15 -25 -20 -25 -5 0 -4 9 1 19 10 18 5 19 -77 23 -48 2
-88 4 -89 3 -1 -1 0 -25 4 -53 l6 -52 48 0 48 0 3 38 c5 56 21 45 33 -22 l10
-59 40 76 c22 42 46 77 53 77 45 0 -65 -190 -168 -291 -48 -47 -181 -129 -210
-129 -6 0 1 22 15 50 32 63 46 159 33 229 -5 29 -7 55 -4 58 2 3 14 -13 25
-36 23 -45 27 -113 10 -174 -6 -22 -8 -41 -5 -44 20 -20 176 126 176 164 0 20
-5 23 -34 23 -19 0 -41 2 -49 6 -11 4 -15 -9 -20 -57 -3 -37 -12 -68 -21 -78
-15 -15 -16 -10 -10 54 4 53 1 93 -15 162 -12 51 -21 95 -21 98 0 3 17 3 38
-1 l37 -6 -55 37 c-67 45 -121 95 -114 107 9 14 21 9 65 -27z m-61 -40 c0 -19
-11 -19 -36 0 -18 14 -18 14 9 15 17 0 27 -5 27 -15z m50 -33 c0 -10 8 -28 17
-41 l16 -24 -33 6 c-53 11 -84 47 -40 47 14 0 20 7 20 21 0 11 5 17 10 14 6
-3 10 -14 10 -23z m30 -125 c0 -20 -1 -19 -25 3 -14 13 -25 27 -25 32 0 4 11
2 25 -4 15 -6 25 -20 25 -31z m394 -24 c-13 -37 -36 -87 -50 -110 -76 -131
-248 -278 -388 -333 -87 -35 -146 -48 -146 -33 0 20 68 71 124 93 172 68 344
239 402 400 17 46 20 50 51 50 l33 0 -26 -67z m-265 21 c-15 -18 -39 -18 -39
0 0 16 19 25 38 18 9 -3 10 -8 1 -18z m16 -33 c-3 -6 -11 -11 -17 -11 -6 0 -6
6 2 15 14 17 26 13 15 -4z m0 -105 c0 -22 -14 -29 -34 -17 -19 12 -6 43 16 39
10 -2 18 -12 18 -22z"/>
<path d="M653 2414 c12 -461 109 -816 311 -1128 78 -120 161 -218 282 -336
215 -208 449 -369 760 -523 150 -75 210 -102 385 -175 l96 -40 129 53 c360
147 710 345 954 541 230 184 437 438 545 667 129 275 193 569 202 937 l5 215
-43 -50 c-24 -27 -52 -56 -61 -64 -15 -13 -18 -32 -18 -101 0 -180 -40 -444
-96 -629 -175 -578 -641 -1018 -1444 -1363 -186 -80 -160 -79 -301 -18 -348
149 -704 356 -920 536 -109 91 -256 248 -333 355 -116 162 -215 380 -270 595
-26 102 -57 332 -63 474 l-6 135 -60 69 -60 70 6 -220z"/>
<path d="M2470 1338 l0 -32 -28 27 c-16 15 -32 23 -39 19 -9 -6 -1 -20 27 -47
45 -46 55 -95 20 -95 -11 0 -20 -4 -20 -10 0 -5 9 -10 20 -10 15 0 20 -7 20
-25 0 -20 -5 -25 -25 -25 -17 0 -23 -4 -19 -14 3 -8 13 -12 25 -9 17 5 19 0
19 -42 l0 -48 -80 79 c-77 75 -80 80 -80 124 0 62 -9 90 -26 83 -10 -4 -12
-16 -7 -46 l6 -41 -28 22 c-50 40 -64 18 -18 -30 l27 -28 -48 2 c-79 5 -69
-19 12 -27 l69 -7 74 -74 73 -74 -39 -2 c-22 -1 -71 -2 -110 -4 l-70 -2 -47
46 c-39 37 -48 42 -54 29 -4 -11 4 -25 23 -41 l28 -25 -37 -1 c-31 0 -38 -4
-38 -20 0 -16 7 -20 37 -20 l37 0 -28 -29 c-49 -51 -19 -56 34 -7 l49 46 106
0 c58 0 105 -4 105 -8 0 -17 -128 -134 -134 -123 -12 19 -26 12 -26 -14 0 -22
-4 -24 -57 -27 -43 -2 -58 -7 -58 -18 0 -11 11 -14 45 -11 l45 3 -28 -30 c-34
-35 -18 -56 17 -23 32 30 38 26 34 -20 -2 -25 2 -44 8 -46 13 -4 24 41 24 99
0 36 1 38 21 27 20 -10 21 -9 16 13 -5 20 4 35 58 88 l65 64 0 -115 0 -116
-40 -46 c-22 -25 -40 -48 -40 -51 0 -14 26 -4 52 21 l28 27 0 -37 c0 -31 3
-37 21 -37 19 0 21 4 16 35 -7 41 1 44 33 10 22 -24 50 -34 50 -18 0 4 -18 25
-39 48 l-39 40 -7 119 c-4 67 -4 117 1 115 5 -2 41 -38 81 -79 62 -65 73 -82
78 -120 11 -76 15 -92 28 -87 7 2 10 20 8 48 l-3 44 26 -24 c21 -20 29 -22 39
-12 7 7 8 14 2 19 -6 4 -17 15 -25 26 -13 17 -12 18 29 15 29 -3 46 0 48 8 5
14 -20 21 -84 25 -37 3 -51 12 -122 82 -45 43 -81 80 -81 82 0 2 15 4 34 4 28
0 35 -4 38 -22 4 -31 26 -34 34 -4 8 34 34 34 34 1 0 -14 5 -25 10 -25 6 0 15
11 20 25 15 38 48 32 101 -21 34 -34 48 -42 52 -31 3 8 -5 25 -19 38 -31 29
-30 40 3 37 19 -2 28 2 31 15 3 13 -3 17 -29 17 l-33 0 28 29 c46 48 20 59
-28 12 -52 -51 -106 -61 -117 -21 l-6 25 -11 -27 c-13 -31 -42 -29 -42 3 0 11
-7 19 -16 19 -11 0 -15 -6 -11 -20 4 -17 0 -20 -31 -20 l-36 0 73 74 c73 73
74 74 137 81 47 5 64 11 64 21 0 12 -9 14 -47 8 l-48 -6 29 31 c23 24 27 34
18 43 -9 9 -17 7 -35 -10 -13 -12 -25 -22 -28 -22 -2 0 -3 17 -1 39 2 21 -1
42 -7 45 -11 7 -16 -9 -26 -85 -5 -39 -15 -55 -78 -122 -41 -42 -77 -77 -81
-77 -4 0 -6 19 -4 43 2 35 7 43 26 45 12 2 22 7 22 12 0 5 -10 10 -22 12 -15
2 -23 10 -23 23 0 13 8 21 23 23 29 4 29 20 0 24 -39 5 -33 37 17 88 40 41 44
48 28 54 -13 5 -24 0 -38 -18 -27 -34 -38 -33 -30 4 6 26 4 30 -14 30 -17 0
-21 -6 -21 -32z"/>
</g>
</svg>
